# xmcd CD database file
# Copyright (C) 1993-1996 Ti Kan
#
# Track frame offsets:
#  150
#  5048
#  9141
#  16072
#  19973
#  25083
#  30241
#  36118
#  40873
#  49169
#  55090
#  61910
#  67108
#  74031
#  78876
#  87454
#  98316
#  112560
#  116892
#  123970
#  131427
#  137867
#  143119
#  149692
#  156522
#  163672
#  175264
#  183324
#  189644
#  193663
#  201377
#  206510
#  212528
#  219554
#  233223
#
# Disc length: 3322 seconds
#
# Revision: 1
# Processed by: cddbd v1.5.2PL0 Copyright (c) Steve Scherf et al.
# Submitted via: Advanced CD Ripper Pro 2.0
#
DISCID=ee0cf823
DTITLE=Unknown Artist - Unknown Album
DYEAR=2003
DGENRE=
TTITLE0=Track1
TTITLE1=Track02
TTITLE2=Track03
TTITLE3=Track04
TTITLE4=Track05
TTITLE5=Track06
TTITLE6=Track07
TTITLE7=Track08
TTITLE8=Track09
TTITLE9=Track10
TTITLE10=Track11
TTITLE11=Track12
TTITLE12=Track13
TTITLE13=Track14
TTITLE14=Track15
TTITLE15=Track16
TTITLE16=Track17
TTITLE17=Track18
TTITLE18=Track19
TTITLE19=Track20
TTITLE20=Track21
TTITLE21=Track22
TTITLE22=Track23
TTITLE23=Track24
TTITLE24=Track25
TTITLE25=Track26
TTITLE26=Track27
TTITLE27=Track28
TTITLE28=Track29
TTITLE29=Track30
TTITLE30=Track31
TTITLE31=Track32
TTITLE32=Track33
TTITLE33=Track34
TTITLE34=Track35
EXTD=
EXTT0=
EXTT1=
EXTT2=
EXTT3=
EXTT4=
EXTT5=
EXTT6=
EXTT7=
EXTT8=
EXTT9=
EXTT10=
EXTT11=
EXTT12=
EXTT13=
EXTT14=
EXTT15=
EXTT16=
EXTT17=
EXTT18=
EXTT19=
EXTT20=
EXTT21=
EXTT22=
EXTT23=
EXTT24=
EXTT25=
EXTT26=
EXTT27=
EXTT28=
EXTT29=
EXTT30=
EXTT31=
EXTT32=
EXTT33=
EXTT34=
PLAYORDER=
